<svg xmlns="http://www.w3.org/2000/svg" width="78" height="29" viewBox="0 0 78 29" fill="none">
  <g clip-path="url(#clip0_2_110)">
    <path d="M13.0847 16.3587C13.2661 16.3579 13.4417 16.3649 13.611 16.3794L13.6283 16.3681C13.8459 16.3969 14.2787 16.4533 14.6788 16.5811C15.0814 16.7063 15.4463 16.903 15.7306 17.1047C16.0074 17.3051 16.2087 17.513 16.3345 17.7661C16.4603 18.0191 16.5232 18.3198 16.561 18.8121C16.5861 19.3056 16.5861 19.9896 16.4729 21.2673C16.3597 22.5412 16.1332 24.409 15.9571 25.6053C15.7809 26.8078 15.6551 27.334 15.4916 27.7223C15.328 28.1231 15.1141 28.3862 14.8751 28.5741C14.636 28.762 14.3592 28.8747 14.095 28.9374C13.8308 29 13.5918 29 13.3653 29C13.1389 29 12.925 29 12.6356 28.9374C12.3462 28.8747 11.9688 28.762 11.692 28.5365C11.5703 28.4417 11.4664 28.3291 11.3756 28.1987C10.8907 27.7046 10.6771 26.7754 10.356 24.5505C9.824 20.8673 9.70812 18.5875 10.0159 17.8653C10.4246 16.9081 11.5335 16.3649 13.0847 16.3587ZM13.0984 0C16.7367 0 20.0261 1.40093 22.5305 4.02007C24.4369 5.99654 25.5084 8.08861 26.0566 10.8445C26.2435 11.7619 26.2435 14.2629 26.0691 15.2946C25.4959 18.5564 23.6768 21.5274 21.0229 23.5237C20.0759 24.2372 17.7584 25.4828 17.3846 25.4828C17.2475 25.4828 17.2351 25.3411 17.2974 24.768C17.4095 23.8482 17.5217 23.6567 18.045 23.438C18.8798 23.0899 20.3002 22.0805 21.1724 21.2079C22.68 19.7162 23.7889 17.7646 24.2998 15.7136C24.6237 14.4332 24.5864 11.5866 24.225 10.2689C23.0912 6.07982 19.6647 2.823 15.4658 1.95285C14.2447 1.70424 12.0269 1.70424 10.7934 1.95285C6.54458 2.823 3.03092 6.24142 1.95937 10.5424C1.6728 11.7109 1.6728 14.5575 1.95937 15.726C2.66958 18.5726 4.51363 21.183 6.93083 22.7369C7.40431 23.0476 7.97746 23.3708 8.21419 23.4703C8.7375 23.694 8.84964 23.8805 8.94932 24.8004C9.01162 25.3597 8.99916 25.5213 8.8621 25.5213C8.77488 25.5213 8.13943 25.2479 7.4666 24.9247L7.40431 24.8787C3.55423 22.9892 1.08719 19.792 0.190082 15.5383C-0.0341943 14.4407 -0.0715737 11.8215 0.140243 10.8146C0.700934 8.11099 1.77248 5.99654 3.55423 4.12697C6.12095 1.42704 9.42279 0 13.0984 0ZM42.479 17.3189C44.3699 17.3189 45.5299 18.5697 45.5299 20.6293C45.5299 22.6947 44.3757 23.9397 42.479 23.9397C40.5765 23.9397 39.428 22.6947 39.428 20.6293C39.428 18.5756 40.5939 17.3189 42.479 17.3189ZM70.6452 17.3189C72.1533 17.3189 73.0987 17.988 73.2031 19.1457H71.8517C71.7473 18.6977 71.3239 18.4127 70.651 18.4127C69.9956 18.4127 69.5026 18.7268 69.5026 19.1864C69.5026 19.5472 69.8042 19.7682 70.4422 19.9137L71.5617 20.1697C72.7739 20.4431 73.3366 20.9667 73.3366 21.9034C73.3366 23.1252 72.2171 23.9397 70.6336 23.9397C69.0501 23.9397 68.0525 23.2532 67.9423 22.0954H69.3633C69.5026 22.5667 69.9492 22.8459 70.6684 22.8459C71.3935 22.8459 71.8981 22.5259 71.8981 22.0547C71.8981 21.694 71.6255 21.4671 71.0222 21.3333L69.897 21.0715C68.6789 20.7922 68.1047 20.2279 68.1047 19.2679C68.1047 18.1159 69.1487 17.3189 70.6452 17.3189ZM57.2697 17.3189C58.8996 17.3189 59.8857 18.2498 60.0365 19.5879H58.6676C58.5342 18.9712 58.0586 18.529 57.2697 18.529C56.2837 18.529 55.6978 19.2912 55.6978 20.6118C55.6978 21.95 56.2895 22.7296 57.2697 22.7296C58.018 22.7296 58.5168 22.3747 58.6676 21.7114H60.0365C59.8799 23.0437 58.8822 23.9397 57.2755 23.9397C55.3672 23.9397 54.242 22.7063 54.242 20.6118C54.242 18.5465 55.3614 17.3189 57.2697 17.3189ZM63.9749 17.3189C65.6048 17.3189 66.5212 18.1159 66.5212 19.4657V23.8117H65.1349V22.939H65.0363C64.6825 23.5557 63.9865 23.9164 63.157 23.9164C61.9332 23.9164 61.0573 23.1717 61.0573 22.0081C61.0573 20.8562 61.9216 20.1929 63.4644 20.0999L65.1001 20.001V19.4657C65.1001 18.8432 64.6825 18.4941 63.9053 18.4941C63.244 18.4941 62.7916 18.7268 62.6582 19.1574H61.3009C61.4169 18.0345 62.4668 17.3189 63.9749 17.3189ZM52.7397 14.9859V23.8117H51.3476V22.8052H51.249C50.8894 23.5033 50.1586 23.9164 49.2769 23.9164C47.6702 23.9164 46.6668 22.6481 46.6668 20.6235C46.6668 18.6105 47.676 17.3422 49.2769 17.3422C50.1469 17.3422 50.8662 17.7611 51.2026 18.4592H51.3012V14.9859H52.7397ZM76.6427 15.8877V17.4876H78V18.6396H76.6427V21.7638C76.6427 22.3921 76.9095 22.6714 77.5128 22.6714C77.7158 22.6714 77.826 22.6597 78 22.6423V23.771C77.7912 23.8117 77.5244 23.8408 77.246 23.8408C75.7901 23.8408 75.2101 23.3463 75.2101 22.1129V18.6396H74.2066V17.4876H75.2101V15.8877H76.6427ZM35.6056 15.4164C37.2761 15.4164 38.4187 16.5626 38.4187 18.2556C38.4187 19.9195 37.2355 21.0598 35.5418 21.0598H33.7263V23.8117H32.2298V15.4164H35.6056ZM65.1001 20.9725L63.6675 21.0656C62.8612 21.118 62.4842 21.4089 62.4842 21.9267C62.4842 22.4619 62.9424 22.7819 63.5805 22.7819C64.4505 22.7819 65.1001 22.2176 65.1001 21.4787V20.9725ZM42.479 18.529C41.4755 18.529 40.9013 19.3028 40.9013 20.6293C40.9013 21.9616 41.4755 22.7296 42.479 22.7296C43.4824 22.7296 44.0508 21.9616 44.0508 20.6293C44.0508 19.3028 43.4766 18.529 42.479 18.529ZM49.7235 18.5697C48.7433 18.5697 48.14 19.3493 48.14 20.6293C48.14 21.9151 48.7375 22.6888 49.7235 22.6888C50.7154 22.6888 51.3186 21.9092 51.3186 20.6293C51.3186 19.361 50.7096 18.5697 49.7235 18.5697ZM15.0297 4.53096C19.3657 5.49434 22.4433 9.82641 21.8452 14.1237C21.6085 15.8553 21.0104 17.2773 19.9513 18.5987C19.428 19.2662 18.1571 20.3862 17.9328 20.3862C17.8989 20.3862 17.8649 20.0369 17.859 19.5868L17.8581 18.5092L18.506 17.7385C20.9481 14.8198 20.7737 10.7426 18.1073 8.06748C17.0731 7.02579 15.877 6.4142 14.332 6.13203C13.3352 5.94806 13.1234 5.94806 12.0767 6.1196C10.4881 6.37816 9.25708 6.99223 8.16435 8.07121C5.4855 10.7189 5.31106 14.8173 7.75318 17.7385L8.39611 18.5092V19.4539C8.39611 19.976 8.35499 20.3987 8.3039 20.3987C8.25406 20.3987 7.89273 20.1501 7.50648 19.8393L7.45414 19.8219C6.15833 18.7901 5.01202 16.9604 4.53855 15.1654C4.25198 14.0814 4.25198 12.0204 4.55101 10.939C5.33598 8.02024 7.49152 5.75787 10.4819 4.69505C11.5036 4.33456 13.7713 4.25376 15.0297 4.53096ZM35.2112 16.6731H33.7263V19.8148H35.2054C36.2726 19.8148 36.8991 19.2563 36.8991 18.2556C36.8991 17.2258 36.29 16.6731 35.2112 16.6731ZM14.4192 9.28817C15.5815 9.75002 16.3963 10.8736 16.3963 12.1871C16.3963 13.9067 14.9999 15.3006 13.2774 15.3006C12.1489 15.3006 11.1603 14.7023 10.6128 13.806L10.5593 13.7337C10.2356 13.2529 10.0648 12.6655 10.0582 11.9956C10.0582 10.8582 10.6937 9.86619 11.7902 9.28568C12.4879 8.92022 13.7214 8.92022 14.4192 9.28817ZM51.4984 5.42705C53.1051 5.42705 54.1144 6.67209 54.1144 8.71418C54.1144 10.7446 53.1167 12.0013 51.5158 12.0013C50.6052 12.0013 49.9033 11.6057 49.5785 10.9308H49.4799V14.0143H48.0414V5.53177H49.4277V6.58482H49.5263C49.8917 5.8634 50.6284 5.42705 51.4984 5.42705ZM43.9812 5.42705C45.5879 5.42705 46.5972 6.67209 46.5972 8.71418C46.5972 10.7446 45.5995 12.0013 43.9986 12.0013C43.088 12.0013 42.3862 11.6057 42.0613 10.9308H41.9627V14.0143H40.5243V5.53177H41.9105V6.58482H42.0091C42.3745 5.8634 43.1112 5.42705 43.9812 5.42705ZM61.5387 5.40378C63.3484 5.40378 64.4331 6.60809 64.4331 8.61527V9.08071H60.0017V9.15634C60.0365 10.2152 60.6455 10.8784 61.5909 10.8784C62.3044 10.8784 62.7974 10.6166 63.0062 10.1454H64.3693C64.1083 11.3032 63.0468 12.0246 61.5503 12.0246C59.6826 12.0246 58.5574 10.7854 58.5574 8.73745C58.5574 6.68954 59.7 5.40378 61.5387 5.40378ZM57.0551 3.07079V11.8966H55.6166V3.07079H57.0551ZM36.261 3.50132L39.2366 11.8966H37.6299L36.9223 9.74977H33.8423L33.1231 11.8966H31.6092L34.5789 3.50132H36.261ZM43.5346 6.65463C42.5544 6.65463 41.9395 7.44587 41.9337 8.71418C41.9395 9.98831 42.5486 10.7737 43.5288 10.7737C44.5265 10.7737 45.1181 9.99994 45.1181 8.71418C45.1181 7.42842 44.5207 6.65463 43.5346 6.65463ZM51.0518 6.65463C50.0715 6.65463 49.4567 7.44587 49.4509 8.71418C49.4567 9.98831 50.0657 10.7737 51.046 10.7737C52.0436 10.7737 52.6353 9.99994 52.6353 8.71418C52.6353 7.42842 52.0378 6.65463 51.0518 6.65463ZM35.4374 5.10125H35.3388L34.1903 8.56291H36.5742L35.4374 5.10125ZM61.5329 6.54991C60.6745 6.54991 60.0713 7.16661 60.0075 8.09748H62.9946C62.9656 7.15497 62.3972 6.54991 61.5329 6.54991Z" fill="#5A668A"/>
  </g>
  <defs>
    <clipPath id="clip0_2_110">
      <rect width="78" height="29" fill="white"/>
    </clipPath>
  </defs>
</svg>