<svg xmlns="http://www.w3.org/2000/svg" width="232" height="104" viewBox="0 0 232 104" fill="none">
  <path fill-rule="evenodd" clip-rule="evenodd" d="M8 4C8 6.20914 6.20914 8 4 8C1.79086 8 0 6.20914 0 4C0 1.79086 1.79086 0 4 0C6.20914 0 8 1.79086 8 4ZM4 72C6.20914 72 8 70.2091 8 68C8 65.7909 6.20914 64 4 64C1.79086 64 0 65.7909 0 68C0 70.2091 1.79086 72 4 72ZM36 72C38.2091 72 40 70.2091 40 68C40 65.7909 38.2091 64 36 64C33.7909 64 32 65.7909 32 68C32 70.2091 33.7909 72 36 72ZM72 68C72 70.2091 70.2091 72 68 72C65.7909 72 64 70.2091 64 68C64 65.7909 65.7909 64 68 64C70.2091 64 72 65.7909 72 68ZM100 72C102.209 72 104 70.2091 104 68C104 65.7909 102.209 64 100 64C97.7909 64 96 65.7909 96 68C96 70.2091 97.7909 72 100 72ZM136 68C136 70.2091 134.209 72 132 72C129.791 72 128 70.2091 128 68C128 65.7909 129.791 64 132 64C134.209 64 136 65.7909 136 68ZM164 72C166.209 72 168 70.2091 168 68C168 65.7909 166.209 64 164 64C161.791 64 160 65.7909 160 68C160 70.2091 161.791 72 164 72ZM200 68C200 70.2091 198.209 72 196 72C193.791 72 192 70.2091 192 68C192 65.7909 193.791 64 196 64C198.209 64 200 65.7909 200 68ZM228 72C230.209 72 232 70.2091 232 68C232 65.7909 230.209 64 228 64C225.791 64 224 65.7909 224 68C224 70.2091 225.791 72 228 72ZM8 100C8 102.209 6.20914 104 4 104C1.79086 104 0 102.209 0 100C0 97.7909 1.79086 96 4 96C6.20914 96 8 97.7909 8 100ZM36 104C38.2091 104 40 102.209 40 100C40 97.7909 38.2091 96 36 96C33.7909 96 32 97.7909 32 100C32 102.209 33.7909 104 36 104ZM72 100C72 102.209 70.2091 104 68 104C65.7909 104 64 102.209 64 100C64 97.7909 65.7909 96 68 96C70.2091 96 72 97.7909 72 100ZM100 104C102.209 104 104 102.209 104 100C104 97.7909 102.209 96 100 96C97.7909 96 96 97.7909 96 100C96 102.209 97.7909 104 100 104ZM136 100C136 102.209 134.209 104 132 104C129.791 104 128 102.209 128 100C128 97.7909 129.791 96 132 96C134.209 96 136 97.7909 136 100ZM164 104C166.209 104 168 102.209 168 100C168 97.7909 166.209 96 164 96C161.791 96 160 97.7909 160 100C160 102.209 161.791 104 164 104ZM200 100C200 102.209 198.209 104 196 104C193.791 104 192 102.209 192 100C192 97.7909 193.791 96 196 96C198.209 96 200 97.7909 200 100ZM228 104C230.209 104 232 102.209 232 100C232 97.7909 230.209 96 228 96C225.791 96 224 97.7909 224 100C224 102.209 225.791 104 228 104ZM36 8C38.2091 8 40 6.20914 40 4C40 1.79086 38.2091 0 36 0C33.7909 0 32 1.79086 32 4C32 6.20914 33.7909 8 36 8ZM72 4C72 6.20914 70.2091 8 68 8C65.7909 8 64 6.20914 64 4C64 1.79086 65.7909 0 68 0C70.2091 0 72 1.79086 72 4ZM100 8C102.209 8 104 6.20914 104 4C104 1.79086 102.209 0 100 0C97.7909 0 96 1.79086 96 4C96 6.20914 97.7909 8 100 8ZM136 4C136 6.20914 134.209 8 132 8C129.791 8 128 6.20914 128 4C128 1.79086 129.791 0 132 0C134.209 0 136 1.79086 136 4ZM164 8C166.209 8 168 6.20914 168 4C168 1.79086 166.209 0 164 0C161.791 0 160 1.79086 160 4C160 6.20914 161.791 8 164 8ZM200 4C200 6.20914 198.209 8 196 8C193.791 8 192 6.20914 192 4C192 1.79086 193.791 0 196 0C198.209 0 200 1.79086 200 4ZM228 8C230.209 8 232 6.20914 232 4C232 1.79086 230.209 0 228 0C225.791 0 224 1.79086 224 4C224 6.20914 225.791 8 228 8ZM8 36C8 38.2091 6.20914 40 4 40C1.79086 40 0 38.2091 0 36C0 33.7909 1.79086 32 4 32C6.20914 32 8 33.7909 8 36ZM36 40C38.2091 40 40 38.2091 40 36C40 33.7909 38.2091 32 36 32C33.7909 32 32 33.7909 32 36C32 38.2091 33.7909 40 36 40ZM72 36C72 38.2091 70.2091 40 68 40C65.7909 40 64 38.2091 64 36C64 33.7909 65.7909 32 68 32C70.2091 32 72 33.7909 72 36ZM100 40C102.209 40 104 38.2091 104 36C104 33.7909 102.209 32 100 32C97.7909 32 96 33.7909 96 36C96 38.2091 97.7909 40 100 40ZM136 36C136 38.2091 134.209 40 132 40C129.791 40 128 38.2091 128 36C128 33.7909 129.791 32 132 32C134.209 32 136 33.7909 136 36ZM164 40C166.209 40 168 38.2091 168 36C168 33.7909 166.209 32 164 32C161.791 32 160 33.7909 160 36C160 38.2091 161.791 40 164 40ZM200 36C200 38.2091 198.209 40 196 40C193.791 40 192 38.2091 192 36C192 33.7909 193.791 32 196 32C198.209 32 200 33.7909 200 36ZM228 40C230.209 40 232 38.2091 232 36C232 33.7909 230.209 32 228 32C225.791 32 224 33.7909 224 36C224 38.2091 225.791 40 228 40Z" fill="#54E6AF"/>
</svg>