<svg xmlns="http://www.w3.org/2000/svg" width="125" height="18" viewBox="0 0 125 18" fill="none">
  <path d="M7.71924 11.91H9.92472V9.263V8.20499V5.558H7.71924V8.20499V9.263V11.91Z" fill="#5A668A"/>
  <ellipse cx="1.10274" cy="8.13849" rx="1.10274" ry="1.09175" fill="#5A668A"/>
  <ellipse cx="1.10274" cy="9.3295" rx="1.10274" ry="1.09175" fill="#5A668A"/>
  <rect y="8.13849" width="2.20548" height="1.191" fill="#5A668A"/>
  <ellipse cx="16.5411" cy="9.3295" rx="1.10274" ry="1.09175" fill="#5A668A"/>
  <ellipse cx="16.5411" cy="8.13849" rx="1.10274" ry="1.09175" fill="#5A668A"/>
  <rect x="17.6438" y="9.3295" width="2.20548" height="1.191" transform="rotate(180 17.6438 9.3295)" fill="#5A668A"/>
  <ellipse cx="4.91219" cy="11.7115" rx="1.10274" ry="1.09175" fill="#5A668A"/>
  <ellipse cx="4.91219" cy="12.9025" rx="1.10274" ry="1.09175" fill="#5A668A"/>
  <rect x="3.80945" y="11.7115" width="2.20548" height="1.191" fill="#5A668A"/>
  <ellipse cx="4.91219" cy="4.56549" rx="1.10274" ry="1.09175" fill="#5A668A"/>
  <ellipse cx="4.91219" cy="8.43625" rx="1.10274" ry="1.09175" fill="#5A668A"/>
  <rect x="3.80945" y="4.56549" width="2.20548" height="3.89556" fill="#5A668A"/>
  <ellipse cx="12.7316" cy="5.7565" rx="1.10274" ry="1.09175" fill="#5A668A"/>
  <ellipse cx="12.7316" cy="4.56549" rx="1.10274" ry="1.09175" fill="#5A668A"/>
  <rect x="13.8344" y="5.7565" width="2.20548" height="1.191" transform="rotate(180 13.8344 5.7565)" fill="#5A668A"/>
  <ellipse cx="8.82198" cy="2.28274" rx="1.10274" ry="1.09175" fill="#5A668A"/>
  <ellipse cx="8.82198" cy="1.09175" rx="1.10274" ry="1.09175" fill="#5A668A"/>
  <rect x="9.92468" y="2.28275" width="2.20548" height="1.191" transform="rotate(180 9.92468 2.28275)" fill="#5A668A"/>
  <ellipse cx="8.82198" cy="16.3762" rx="1.10274" ry="1.09175" fill="#5A668A"/>
  <ellipse cx="8.82198" cy="15.1852" rx="1.10274" ry="1.09175" fill="#5A668A"/>
  <rect x="9.92468" y="16.3762" width="2.20548" height="1.191" transform="rotate(180 9.92468 16.3762)" fill="#5A668A"/>
  <ellipse cx="12.7316" cy="12.9025" rx="1.10274" ry="1.09175" fill="#5A668A"/>
  <ellipse cx="12.7316" cy="9.03174" rx="1.10274" ry="1.09175" fill="#5A668A"/>
  <rect x="13.8344" y="12.9025" width="2.20548" height="3.87075" transform="rotate(180 13.8344 12.9025)" fill="#5A668A"/>
  <ellipse cx="8.82198" cy="5.558" rx="1.10274" ry="1.09175" fill="#5A668A"/>
  <ellipse cx="8.82198" cy="11.91" rx="1.10274" ry="1.09175" fill="#5A668A"/>
  <path fill-rule="evenodd" clip-rule="evenodd" d="M69.6013 12.8022H70.9502V8.81154H73.1787C74.0682 8.81154 74.8379 8.53403 75.4879 7.97899C76.1379 7.42396 76.4629 6.72446 76.4629 5.88044C76.4629 5.03643 76.1379 4.33692 75.4879 3.78188C74.8379 3.22685 74.0682 2.94934 73.1787 2.94934H69.6013V12.8022ZM73.208 7.60057H70.9502V4.16032H73.208C73.7749 4.16032 74.2294 4.33921 74.5715 4.69699C74.9136 5.05478 75.0847 5.44926 75.0847 5.88044C75.0847 6.31162 74.9136 6.7061 74.5715 7.06389C74.2294 7.42168 73.7749 7.60057 73.208 7.60057ZM77.5813 6.87123C78.2752 6.18318 79.1598 5.83916 80.235 5.83916C81.3102 5.83916 82.1947 6.18089 82.8887 6.86436C83.5827 7.54782 83.9297 8.40329 83.9297 9.43079C83.9297 10.4583 83.5827 11.3137 82.8887 11.9972C82.1947 12.6807 81.3102 13.0224 80.235 13.0224C79.1598 13.0224 78.2752 12.6807 77.5813 11.9972C76.8873 11.3137 76.5403 10.4583 76.5403 9.43079C76.5403 8.40329 76.8873 7.55012 77.5813 6.87123ZM80.235 11.8665C79.5996 11.8665 79.0474 11.6463 78.5782 11.206C78.1188 10.7564 77.8892 10.1647 77.8892 9.43079C77.8892 8.69686 78.1213 8.10744 78.5856 7.6625C79.0498 7.21756 79.5996 6.99508 80.235 6.99508C80.8703 6.99508 81.4201 7.21756 81.8844 7.6625C82.3487 8.10744 82.5808 8.69686 82.5808 9.43079C82.5808 10.1647 82.3487 10.7541 81.8844 11.1991C81.4201 11.644 80.8703 11.8665 80.235 11.8665ZM87.995 13.0224C87.0664 13.0224 86.265 12.6784 85.5905 11.9903C84.9161 11.3023 84.5789 10.4491 84.5789 9.43079C84.5789 8.41246 84.9161 7.55929 85.5905 6.87123C86.265 6.18318 87.0664 5.83916 87.995 5.83916C88.5424 5.83916 89.0335 5.94924 89.4685 6.16943C89.9034 6.3896 90.2284 6.66482 90.4435 6.99508H90.5021L90.4435 6.05933V2.94934H91.7923V12.8022H90.5021V11.8665H90.4435C90.2284 12.1968 89.9034 12.472 89.4685 12.6921C89.0335 12.9123 88.5424 13.0224 87.995 13.0224ZM89.835 11.206C89.3903 11.6463 88.8503 11.8665 88.2149 11.8665C87.5894 11.8665 87.0518 11.644 86.6022 11.1991C86.1525 10.7541 85.9277 10.1647 85.9277 9.43079C85.9277 8.69686 86.1525 8.10744 86.6022 7.6625C87.0518 7.21756 87.5894 6.99508 88.2149 6.99508C88.8503 6.99508 89.3903 7.21526 89.835 7.65561C90.2797 8.09597 90.5021 8.68769 90.5021 9.43079C90.5021 10.1739 90.2797 10.7656 89.835 11.206ZM96.4734 13.0224C95.3983 13.0224 94.5137 12.6807 93.8197 11.9972C93.1257 11.3137 92.7787 10.4583 92.7787 9.43079C92.7787 8.40329 93.1257 7.54782 93.8197 6.86436C94.5137 6.18089 95.3983 5.83916 96.4734 5.83916C97.2749 5.83916 97.9396 6.02263 98.4674 6.3896C98.9952 6.75656 99.3813 7.21984 99.6256 7.77946L98.3941 8.2611C98.0227 7.41708 97.3531 6.99508 96.3855 6.99508C95.7892 6.99508 95.2639 7.22443 94.8094 7.68314C94.3548 8.14184 94.1276 8.72438 94.1276 9.43079C94.1276 10.1372 94.3548 10.7197 94.8094 11.1784C95.2639 11.6371 95.7892 11.8665 96.3855 11.8665C97.3922 11.8665 98.0862 11.4445 98.4674 10.6005L99.6696 11.0821C99.4253 11.6326 99.0318 12.0935 98.4894 12.4651C97.9469 12.8366 97.2749 13.0224 96.4734 13.0224ZM100.957 12.4032C101.47 12.816 102.108 13.0224 102.87 13.0224H102.87C103.906 13.0224 104.693 12.6371 105.23 11.8665H105.289V12.8022H106.579V8.72897C106.579 7.81157 106.276 7.10059 105.67 6.59602C105.064 6.09144 104.302 5.83916 103.383 5.83916C102.582 5.83916 101.936 6.01117 101.448 6.3552C100.959 6.69922 100.632 7.07306 100.465 7.47672L101.697 7.97212C101.814 7.66937 102.032 7.43085 102.349 7.25655C102.667 7.08224 103.021 6.99508 103.412 6.99508C103.94 6.99508 104.385 7.14416 104.747 7.44232C105.108 7.74048 105.289 8.13724 105.289 8.63264V8.8253C104.781 8.55008 104.131 8.41247 103.339 8.41247C102.45 8.41247 101.702 8.62118 101.096 9.0386C100.49 9.45601 100.187 10.0317 100.187 10.7656C100.187 11.4445 100.443 11.9903 100.957 12.4032ZM103.09 11.8665C103.647 11.8665 104.153 11.6715 104.607 11.2816C105.062 10.8917 105.289 10.4308 105.289 9.89866C104.908 9.60509 104.336 9.45831 103.574 9.45831C102.919 9.45831 102.425 9.59133 102.093 9.85738C101.761 10.1234 101.594 10.4353 101.594 10.7931C101.594 11.1234 101.746 11.3849 102.049 11.5775C102.352 11.7702 102.699 11.8665 103.09 11.8665ZM108.541 12.472C109.064 12.8389 109.726 13.0224 110.527 13.0224C111.358 13.0224 112.037 12.8206 112.565 12.4169C113.093 12.0133 113.357 11.5087 113.357 10.9032C113.357 10.4537 113.196 10.05 112.873 9.69225C112.551 9.33446 112.052 9.08217 111.378 8.93539L109.956 8.61888C109.32 8.48128 109.003 8.21982 109.003 7.83451C109.003 7.56846 109.139 7.35745 109.413 7.2015C109.687 7.04554 110.024 6.96756 110.425 6.96756C111.256 6.96756 111.803 7.26571 112.067 7.86203L113.24 7.40791C113.025 6.90334 112.668 6.51574 112.169 6.24511C111.671 5.97448 111.104 5.83916 110.469 5.83916C109.697 5.83916 109.029 6.02493 108.467 6.39648C107.905 6.76803 107.624 7.25196 107.624 7.84827C107.624 8.37119 107.83 8.78631 108.24 9.09364C108.651 9.40097 109.086 9.60968 109.545 9.71976L110.996 10.05C111.651 10.206 111.979 10.5041 111.979 10.9445C111.979 11.2289 111.844 11.4582 111.576 11.6325C111.307 11.8069 110.962 11.894 110.542 11.894C109.623 11.894 108.973 11.472 108.592 10.628L107.39 11.0959C107.634 11.6463 108.018 12.105 108.541 12.472ZM117.393 12.9123C116.64 12.9123 116.066 12.7243 115.67 12.3481C115.274 11.972 115.077 11.4399 115.077 10.7518V7.21526H113.816V6.05933H115.077V3.99518H116.425V6.05933H118.185V7.21526H116.425V10.6555C116.425 11.3894 116.748 11.7564 117.393 11.7564C117.637 11.7564 117.843 11.7197 118.009 11.6463L118.478 12.7334C118.185 12.8527 117.823 12.9123 117.393 12.9123ZM120.131 12.472C120.654 12.8389 121.317 13.0224 122.118 13.0224C122.949 13.0224 123.628 12.8206 124.156 12.4169C124.684 12.0133 124.948 11.5087 124.948 10.9032C124.948 10.4537 124.786 10.05 124.464 9.69225C124.141 9.33446 123.643 9.08217 122.968 8.93539L121.546 8.61888C120.911 8.48128 120.593 8.21982 120.593 7.83451C120.593 7.56846 120.73 7.35745 121.004 7.2015C121.278 7.04554 121.615 6.96756 122.015 6.96756C122.846 6.96756 123.394 7.26571 123.658 7.86203L124.83 7.40791C124.615 6.90334 124.259 6.51574 123.76 6.24511C123.262 5.97448 122.695 5.83916 122.059 5.83916C121.287 5.83916 120.62 6.02493 120.058 6.39648C119.496 6.76803 119.215 7.25196 119.215 7.84827C119.215 8.37119 119.42 8.78631 119.831 9.09364C120.241 9.40097 120.676 9.60968 121.136 9.71976L122.587 10.05C123.242 10.206 123.57 10.5041 123.57 10.9445C123.57 11.2289 123.435 11.4582 123.166 11.6325C122.898 11.8069 122.553 11.894 122.133 11.894C121.214 11.894 120.564 11.472 120.183 10.628L118.981 11.0959C119.225 11.6463 119.609 12.105 120.131 12.472Z" fill="#5A668A"/>
  <path fill-rule="evenodd" clip-rule="evenodd" d="M28.0594 2.33325C25.0839 2.33325 22.5906 4.72043 22.5906 7.6663C22.5906 10.602 25.0839 12.9892 28.0594 12.9892C29.66 12.9892 30.8708 12.4711 31.825 11.4959C32.7997 10.5411 33.0973 9.19003 33.0973 8.09294C33.0973 7.74757 33.0665 7.44282 33.0152 7.17871H28.0594V8.63133H31.5787C31.4761 9.44398 31.1991 10.0433 30.7784 10.4598C30.2654 10.9677 29.4651 11.5264 28.0594 11.5264C25.8944 11.5264 24.2015 9.79952 24.2015 7.65614C24.2015 5.51277 25.8944 3.78587 28.0594 3.78587C29.2291 3.78587 30.0807 4.24299 30.7066 4.83216L31.7532 3.80619C30.8708 2.97321 29.7011 2.33325 28.0594 2.33325ZM40.5259 9.62683C40.5259 7.63583 38.9663 6.19336 37.0476 6.19336C35.1289 6.19336 33.5693 7.63583 33.5693 9.62683C33.5693 11.6077 35.1289 13.0603 37.0476 13.0603C38.9663 13.0603 40.5259 11.6077 40.5259 9.62683ZM37.0476 11.6991C38.0941 11.6991 39.0073 10.8458 39.0073 9.61667C39.0073 8.37737 38.0941 7.53424 37.0476 7.53424C35.9908 7.53424 35.0878 8.37737 35.0878 9.61667C35.0878 10.8458 36.001 11.6991 37.0476 11.6991ZM48.1186 9.62683C48.1186 7.63583 46.559 6.19336 44.6403 6.19336C42.7216 6.19336 41.162 7.63583 41.162 9.62683C41.162 11.6077 42.7216 13.0603 44.6403 13.0603C46.559 13.0603 48.1186 11.6077 48.1186 9.62683ZM44.6403 11.6991C45.6869 11.6991 46.6001 10.8458 46.6001 9.61667C46.6001 8.37737 45.6972 7.53424 44.6403 7.53424C43.5835 7.53424 42.6806 8.37737 42.6806 9.61667C42.6806 10.8458 43.5938 11.6991 44.6403 11.6991ZM55.4138 6.3051H53.9568V6.8638H53.9055C53.5669 6.45748 52.9103 6.09178 52.0792 6.09178C50.3451 6.09178 48.7548 7.59519 48.7548 9.5354C48.7548 11.4553 50.3451 12.9587 52.0792 12.9587C52.9103 12.9587 53.5669 12.593 53.9055 12.1765H53.9568V12.6743C53.9568 13.9847 53.2489 14.6856 52.1099 14.6856C51.1762 14.6856 50.6017 14.0253 50.3657 13.4666L49.0421 14.0152C49.4217 14.9294 50.4375 16.0468 52.1202 16.0468C53.9055 16.0468 55.4138 15.0107 55.4138 12.4711V6.3051ZM52.2125 11.6077C53.2489 11.6077 54.0697 10.7442 54.0594 9.5354C54.0594 8.32658 53.2489 7.44282 52.2125 7.44282C51.166 7.44282 50.2836 8.32658 50.2836 9.5354C50.2836 10.7341 51.166 11.6077 52.2125 11.6077ZM56.4501 2.73958V12.8267H57.9687V2.73958H56.4501ZM62.1447 11.6991C62.9245 11.6991 63.458 11.3232 63.8582 10.7544L65.0381 11.5366C64.6482 12.0953 63.7351 13.0603 62.1447 13.0603C60.1747 13.0603 58.7074 11.5467 58.7074 9.62683C58.7074 7.58503 60.1952 6.19336 61.9805 6.19336C63.7761 6.19336 64.6585 7.60535 64.9458 8.37737L65.0997 8.76338L60.462 10.663C60.8211 11.3436 61.3649 11.6991 62.1447 11.6991ZM60.2157 9.51509C60.1747 8.19453 61.252 7.51393 62.0318 7.51393C62.6372 7.51393 63.1502 7.80852 63.3144 8.24532L60.2157 9.51509Z" fill="#5A668A"/>
</svg>