<svg xmlns="http://www.w3.org/2000/svg" width="129" height="27" viewBox="0 0 129 27" fill="none">
  <path fill-rule="evenodd" clip-rule="evenodd" d="M25.7467 13.9115C25.7467 21.045 19.9837 26.828 12.8733 26.828C5.763 26.828 0 21.045 0 13.9115C0 6.77911 5.763 0.996094 12.8733 0.996094C19.9837 0.996094 25.7467 6.77911 25.7467 13.9115ZM12.9927 20.131C9.63512 20.131 6.91391 17.3996 6.91391 14.0312C6.91391 10.6627 9.63512 7.93257 12.9927 7.93257C16.3502 7.93257 19.0714 10.6627 19.0714 14.0312H16.8612C16.8612 11.8875 15.1294 10.15 12.9927 10.15C10.8559 10.15 9.12414 11.8875 9.12414 14.0312C9.12414 16.1749 10.8559 17.9123 12.9927 17.9123V20.131ZM12.9927 3.86644C7.39717 3.86644 2.86101 8.41741 2.86101 14.0312C2.86101 19.6449 7.39717 24.1971 12.9927 24.1971V21.6556C8.79634 21.6556 5.39422 18.2424 5.39422 14.0312C5.39422 9.82115 8.79634 6.40792 12.9927 6.40792C17.1902 6.40792 20.5911 9.82115 20.5911 14.0312H23.1243C23.1243 8.41741 18.5881 3.86644 12.9927 3.86644Z" fill="#5A668A"/>
  <path fill-rule="evenodd" clip-rule="evenodd" d="M34.0164 7.04027V21.1055H37.1196V17.0671H37.9017C40.9062 17.0671 43.0887 15.5606 43.0887 11.9237C43.0887 8.66769 41.246 7.04027 37.8222 7.04027H34.0164ZM40.0047 12.0229C40.0047 13.7313 39.2636 14.5353 37.7812 14.5353H37.1003V9.61198H37.8222C39.2636 9.61198 40.0047 10.2745 40.0047 12.0229Z" fill="#5A668A"/>
  <path fill-rule="evenodd" clip-rule="evenodd" d="M43.3876 15.9222C43.3876 19.4781 45.27 21.3074 47.6345 21.3074C49.9978 21.3074 51.9007 19.4587 51.9007 15.881C51.9007 12.3252 49.9978 10.4765 47.6538 10.4765C45.2905 10.4765 43.3876 12.3252 43.3876 15.9222ZM46.1522 15.881C46.1522 13.9127 46.7126 12.9478 47.614 12.9478C48.5347 12.9478 49.1361 13.9127 49.1361 15.9016C49.1361 17.8712 48.5552 18.8554 47.6538 18.8554C46.7331 18.8554 46.1522 17.8712 46.1522 15.881Z" fill="#5A668A"/>
  <path d="M57.0057 21.2675C54.2218 21.2675 52.5792 19.3172 52.5792 15.9222C52.5792 12.6057 54.2616 10.5164 57.166 10.5164C58.0879 10.5164 58.7881 10.6965 59.469 10.9589L59.0279 13.4907C58.5471 13.2694 57.9879 13.0881 57.4058 13.0881C56.0645 13.0881 55.3631 14.2536 55.3631 15.881C55.3631 17.6499 56.0645 18.6946 57.4468 18.6946C57.9674 18.6946 58.5073 18.5338 59.0882 18.3125L59.5293 20.7452C58.8279 21.0462 57.9072 21.2675 57.0057 21.2675Z" fill="#5A668A"/>
  <path d="M63.4737 16.1229V21.1067H60.5693V6.6183H63.4737V15.1979L65.837 10.6977H69.021L66.1974 15.6803L69.1018 21.1067H65.8768L63.4737 16.1229Z" fill="#5A668A"/>
  <path fill-rule="evenodd" clip-rule="evenodd" d="M72.8461 10.4765C70.5419 10.4765 68.7185 12.365 68.7185 15.9415C68.7185 19.9206 70.7419 21.2675 73.286 21.2675C74.408 21.2675 75.589 21.0051 76.5905 20.5033L76.0699 18.454C75.2492 18.8348 74.3477 19.0766 73.5861 19.0766C72.305 19.0766 71.5241 18.373 71.4228 16.9462H76.9316V16.002C76.9316 12.3445 75.2889 10.4765 72.8461 10.4765ZM72.8461 12.7072C73.7259 12.7072 74.1874 13.631 74.2477 15.1979H71.4228C71.4831 13.6709 71.9435 12.7072 72.8461 12.7072Z" fill="#5A668A"/>
  <path d="M78.491 17.9909V13.0881H77.3702V10.6965H78.491V7.96521H81.3761V10.6965H83.5791V13.0881H81.3761V17.5701C81.3761 18.4334 81.8365 18.7949 82.6174 18.7949C82.9585 18.7949 83.2586 18.7345 83.5791 18.6547V21.0257C83.1381 21.1659 82.5174 21.2469 81.7967 21.2469C79.5937 21.2469 78.491 20.3425 78.491 17.9909Z" fill="#5A668A"/>
  <path d="M93.3312 21.2675C89.6856 21.2675 87.4019 18.9364 87.4019 14.0928C87.4019 9.43183 89.7459 6.87947 93.3516 6.87947C94.5532 6.87947 95.5547 7.12008 96.3356 7.42235L95.8547 10.2758C95.2341 10.0146 94.5134 9.77279 93.6517 9.77279C91.7295 9.77279 90.587 11.2999 90.587 14.0529C90.587 16.8858 91.6693 18.373 93.712 18.373C94.4929 18.373 95.2341 18.1723 95.8752 17.8905L96.3754 20.6642C95.5149 21.0257 94.4532 21.2675 93.3312 21.2675Z" fill="#5A668A"/>
  <path fill-rule="evenodd" clip-rule="evenodd" d="M96.9346 17.951C96.9346 20.2023 98.0758 21.2469 99.698 21.2469C100.78 21.2469 101.521 20.8649 102.283 20.2023L102.643 21.1067H105.167L104.946 19.258V14.0529C104.946 11.6614 103.764 10.5369 101.141 10.5369C99.7992 10.5369 98.5772 10.8585 97.5359 11.2805L98.0758 13.4907C98.8773 13.1485 99.7787 12.9079 100.62 12.9079C101.701 12.9079 102.102 13.3903 102.102 14.2742V14.857C101.621 14.7566 101.061 14.6756 100.499 14.6756C99.1978 14.6756 98.3362 14.9767 97.7565 15.58C97.2154 16.1035 96.9346 16.9462 96.9346 17.951ZM102.102 16.4239V18.8965C101.721 19.1165 101.301 19.2773 100.899 19.2773C100.099 19.2773 99.6389 18.8554 99.6389 17.8107C99.6389 17.2884 99.7594 16.9269 99.9788 16.6851C100.22 16.4638 100.56 16.3441 101.161 16.3441C101.501 16.3441 101.821 16.3635 102.102 16.4239Z" fill="#5A668A"/>
  <path d="M109.772 21.2868C108.369 21.2868 107.067 20.9253 105.945 20.322L106.526 17.9715C107.629 18.5737 108.729 18.9364 109.731 18.9364C110.473 18.9364 110.873 18.6148 110.873 18.1723C110.873 17.7309 110.633 17.529 109.231 16.9668C107.288 16.1833 106.326 15.4397 106.326 13.6914C106.326 11.7617 107.648 10.5164 109.972 10.5164C111.153 10.5164 112.235 10.7981 113.216 11.2805L112.635 13.631C111.734 13.1691 110.813 12.8668 109.972 12.8668C109.351 12.8668 109.01 13.1292 109.01 13.5512C109.01 13.9526 109.231 14.1533 110.613 14.7167C112.797 15.58 113.557 16.384 113.557 18.032C113.557 20.2023 112.035 21.2868 109.772 21.2868Z" fill="#5A668A"/>
  <path d="M115.218 17.9909V13.0881H114.096V10.6965H115.218V7.96521H118.102V10.6965H120.305V13.0881H118.102V17.5701C118.102 18.4334 118.563 18.7949 119.343 18.7949C119.684 18.7949 119.984 18.7345 120.305 18.6547V21.0257C119.865 21.1659 119.243 21.2469 118.522 21.2469C116.319 21.2469 115.218 20.3425 115.218 17.9909Z" fill="#5A668A"/>
  <mask id="mask0_0_659" style="mask-type:luminance" maskUnits="userSpaceOnUse" x="120" y="10" width="9" height="12">
    <path fill-rule="evenodd" clip-rule="evenodd" d="M120.939 10.2806H128.796V21.4235H120.939V10.2806Z" fill="white"/>
  </mask>
  <g mask="url(#mask0_0_659)">
    <path d="M125.011 21.2868C123.608 21.2868 122.306 20.9253 121.184 20.322L121.765 17.9715C122.868 18.5736 123.968 18.9364 124.97 18.9364C125.711 18.9364 126.112 18.6148 126.112 18.1722C126.112 17.7309 125.871 17.529 124.47 16.9668C122.527 16.1833 121.565 15.4397 121.565 13.6914C121.565 11.7617 122.887 10.5164 125.211 10.5164C126.392 10.5164 127.474 10.7981 128.455 11.2805L127.874 13.6309C126.973 13.1691 126.052 12.8668 125.211 12.8668C124.59 12.8668 124.249 13.1292 124.249 13.5511C124.249 13.9526 124.47 14.1533 125.852 14.7167C128.034 15.58 128.795 16.384 128.795 18.032C128.795 20.2023 127.274 21.2868 125.011 21.2868Z" fill="#5A668A"/>
  </g>
</svg>