<svg xmlns="http://www.w3.org/2000/svg" width="96" height="29" viewBox="0 0 96 29" fill="none">
  <path fill-rule="evenodd" clip-rule="evenodd" d="M14.4251 0.047821C6.4825 0.047821 0.043457 6.51983 0.043457 14.5033C0.043457 22.4871 6.4825 28.9586 14.4251 28.9586C22.3685 28.9586 28.8069 22.4871 28.8069 14.5033C28.8069 6.52034 22.3685 0.0485115 14.4249 0.0485115L14.4251 0.047821ZM21.0204 20.8967C20.7628 21.3214 20.2098 21.456 19.7873 21.1954C16.4107 19.1222 12.1599 18.6527 7.15381 19.8023C6.67141 19.9128 6.19055 19.609 6.08064 19.124C5.97021 18.6389 6.27126 18.1556 6.75487 18.0451C12.2332 16.787 16.9324 17.3287 20.7233 19.6573C21.1458 19.918 21.2797 20.4721 21.0204 20.8967ZM21.2385 17.3322C21.7657 17.6584 22.4561 17.491 22.7807 16.9607V16.9609C23.1053 16.4316 22.9387 15.7377 22.4115 15.4114C17.9721 12.6694 11.479 11.8978 6.25598 13.4907C5.66401 13.672 5.32964 14.3003 5.50824 14.8963C5.68822 15.4914 6.31454 15.8273 6.90754 15.6472C11.48 14.2521 17.3727 14.9438 21.2385 17.3322ZM22.9318 12.862C18.2967 10.0948 10.6493 9.84033 6.22386 11.1904C5.51322 11.407 4.76171 11.0038 4.54635 10.2895C4.331 9.57484 4.73183 8.81998 5.44298 8.60282C10.5231 7.0527 18.9682 7.3522 24.3047 10.5365C24.9452 10.9178 25.1548 11.7476 24.7752 12.3892C24.3974 13.0317 23.5696 13.2435 22.9325 12.862H22.9318ZM36.2464 11.5016C36.2464 12.3794 36.6878 12.7971 39.1711 13.3923L39.1763 13.3946C42.2005 14.1341 43.4353 15.282 43.4301 17.3546C43.4301 19.811 41.5634 21.3973 38.6748 21.3973C36.6311 21.3973 34.7386 20.6689 33.1999 19.2879C33.1346 19.2292 33.1277 19.1291 33.1844 19.0601L34.5446 17.434C34.572 17.4012 34.6115 17.3805 34.6562 17.377C34.6974 17.3753 34.742 17.3874 34.7747 17.4167C36.097 18.5664 37.2803 19.0584 38.7297 19.0584C40.0349 19.0584 40.8455 18.4904 40.8455 17.5773C40.8455 16.7535 40.4437 16.2927 38.0686 15.7425C35.2761 15.0643 33.6601 14.1857 33.6601 11.7043C33.6601 9.39031 35.5337 7.77304 38.2145 7.77304C40.0384 7.77304 41.5977 8.31627 42.9836 9.43364C43.0506 9.48767 43.0643 9.5852 43.0145 9.65597L41.8021 11.3739C41.7763 11.41 41.7385 11.4339 41.6939 11.4405C41.651 11.4474 41.6063 11.4369 41.572 11.4105C40.4076 10.5381 39.2982 10.1143 38.1785 10.1143C37.0227 10.1143 36.2464 10.6724 36.2464 11.5016ZM49.9664 10.9308C48.7144 10.9308 47.6875 11.4265 46.8391 12.4424V11.299C46.8391 11.2087 46.7669 11.1351 46.6776 11.1351H44.4537C44.3644 11.1351 44.2922 11.2087 44.2922 11.299V24.0039C44.2922 24.0937 44.3644 24.1679 44.4537 24.1679H46.6776C46.7669 24.1679 46.8391 24.0937 46.8391 24.0039V19.994C47.6875 20.9485 48.7144 21.4163 49.9664 21.4163C52.2934 21.4163 54.6496 19.6159 54.6496 16.1741C54.653 12.7315 52.2968 10.9306 49.9681 10.9306L49.9664 10.9308ZM49.4512 19.1498C50.9899 19.1498 52.0633 17.926 52.0633 16.1741V16.1739C52.0633 14.4494 50.9642 13.1983 49.4512 13.1985C47.9313 13.1985 46.7841 14.4772 46.7841 16.1741C46.7841 17.8707 47.9313 19.1498 49.4512 19.1498ZM60.6861 10.9308C57.6893 10.9308 55.3417 13.2501 55.3417 16.2115C55.3417 19.1412 57.6739 21.4353 60.65 21.4353C63.6571 21.4353 66.0116 19.124 66.0116 16.1741C66.0116 13.2342 63.6726 10.9311 60.6861 10.9311V10.9308ZM57.8902 16.1732C57.8902 17.8794 59.0924 19.1671 60.6861 19.1671C62.2952 19.1671 63.463 17.9242 63.463 16.2107C63.463 14.5028 62.254 13.2155 60.65 13.2155C59.0512 13.2155 57.8902 14.4593 57.8902 16.1732ZM72.4105 11.1351H69.9632V8.62077C69.9632 8.53067 69.8911 8.45713 69.8018 8.45713H67.5778C67.4885 8.45713 67.4147 8.53067 67.4147 8.62077V11.1351H66.3465C66.2572 11.1351 66.1851 11.2087 66.1851 11.299V13.2197C66.1851 13.3098 66.2572 13.3835 66.3465 13.3835H67.4147V18.3541C67.4147 20.3616 68.409 21.3801 70.372 21.3801C71.1688 21.3801 71.83 21.2144 72.4534 20.8588C72.5049 20.8312 72.5358 20.7759 72.5358 20.7172V18.8875C72.5358 18.8322 72.5066 18.7787 72.4585 18.7494C72.4105 18.7183 72.3503 18.7166 72.3005 18.7425C71.8729 18.9582 71.459 19.0584 70.9954 19.0584C70.2827 19.0584 69.9632 18.7321 69.9632 18.0037V13.3844H72.4105C72.4998 13.3844 72.5719 13.3108 72.5719 13.2206V11.3C72.5753 11.2097 72.5032 11.1362 72.4122 11.1362L72.4105 11.1351ZM80.9354 10.8362V11.145V11.1455H84.7342C84.8012 11.1455 84.8613 11.1874 84.8853 11.2508L87.4819 18.0623L89.8536 11.2553C89.8759 11.1899 89.9378 11.1455 90.0082 11.1455H92.3232C92.3764 11.1455 92.4262 11.1723 92.4554 11.2166C92.4863 11.2613 92.4932 11.3183 92.4726 11.3687L88.6154 21.387C87.8168 23.455 86.9083 24.2248 85.2666 24.2248C84.389 24.2248 83.6797 24.0419 82.8932 23.6138C82.8176 23.5723 82.7867 23.4809 82.8228 23.4015L83.5767 21.7391C83.5939 21.6977 83.6299 21.6666 83.6729 21.6511C83.7141 21.639 83.7622 21.6425 83.8017 21.6632C84.2224 21.8962 84.6363 22.0136 85.0278 22.0136C85.5121 22.0136 85.8676 21.8531 86.2283 21.0487L83.0477 13.384H80.9715V21.0487C80.9715 21.1401 80.8993 21.2126 80.8083 21.2126H78.5861C78.4968 21.2126 78.4229 21.1401 78.4229 21.0487V13.3835H77.3547C77.2654 13.3835 77.1916 13.3098 77.1916 13.2197V11.2891C77.1916 11.199 77.2654 11.1255 77.3547 11.1255H78.4229V10.6525C78.4229 8.45454 79.51 7.29212 81.5622 7.29212C82.4072 7.29212 82.9705 7.42729 83.4101 7.55899C83.4805 7.58023 83.5252 7.64392 83.5252 7.7159V9.59918C83.5252 9.65165 83.5011 9.7012 83.4582 9.73209C83.417 9.76299 83.3637 9.77111 83.3122 9.75488C82.8949 9.61506 82.5222 9.52254 82.0585 9.52254C81.2823 9.52254 80.9354 9.92767 80.9354 10.8362ZM75.9929 11.1351H73.7689C73.6796 11.1351 73.6057 11.2087 73.6057 11.299V21.0487C73.6057 21.1401 73.6796 21.2126 73.7689 21.2126H75.9929C76.0822 21.2126 76.156 21.1401 76.156 21.0487V11.2996C76.156 11.2094 76.0839 11.1358 75.9929 11.1358V11.1351ZM73.2983 8.29763C73.2983 7.41227 74.0127 6.69555 74.8937 6.69555C75.773 6.69555 76.4874 7.41244 76.4874 8.29763C76.4874 9.18351 75.7747 9.90109 74.8937 9.90109C74.0127 9.90109 73.2983 9.18351 73.2983 8.29763ZM94.372 14.2701C93.4927 14.2701 92.8074 13.5597 92.8074 12.6972C92.8074 11.8346 93.5013 11.1162 94.3805 11.1162C95.2598 11.1162 95.9451 11.8263 95.9451 12.6882C95.9451 13.5508 95.2512 14.2701 94.372 14.2701ZM92.9723 12.6972C92.9723 11.913 93.5785 11.2725 94.3805 11.2725C95.1774 11.2725 95.7802 11.9043 95.7802 12.6882C95.7802 13.4729 95.174 14.1128 94.372 14.1128C93.5751 14.1128 92.9723 13.481 92.9723 12.6972ZM94.7274 12.8499L95.1705 13.4727H94.7961L94.3977 12.9014H94.056V13.4727H93.7434V11.8218H94.475C94.858 11.8218 95.1087 12.0181 95.1087 12.3485C95.1104 12.6191 94.9541 12.7845 94.7292 12.8499H94.7274ZM94.056 12.1051H94.463C94.6656 12.1051 94.7876 12.1961 94.7876 12.3659C94.7876 12.5273 94.6656 12.6273 94.463 12.6273H94.056V12.1051Z" fill="#5A668A"/>
</svg>